<svg width="391" height="597" viewBox="0 0 391 597" fill="none" xmlns="http://www.w3.org/2000/svg">
<path fill-rule="evenodd" clip-rule="evenodd" d="M50 0C22.3858 0 0 22.3858 0 50V339.994L17.4765 328.591C18.0856 328.009 18.7931 327.564 19.5474 327.239L74.6588 291.289L74.6634 291.284L134.643 252.152C137.004 250.616 140.073 250.616 142.434 252.152L312.833 363.129C312.842 363.138 312.856 363.148 312.87 363.157L312.875 363.161L312.889 363.175C313.315 363.455 313.704 363.789 314.065 364.165C314.129 364.232 314.187 364.302 314.244 364.372C314.297 364.437 314.349 364.503 314.402 364.569C314.451 364.628 314.502 364.685 314.553 364.742C314.647 364.848 314.742 364.954 314.824 365.073C314.863 365.132 314.895 365.197 314.927 365.261L314.927 365.262L314.927 365.262L314.928 365.262C314.953 365.313 314.978 365.364 315.007 365.412C315.105 365.573 315.194 365.743 315.278 365.912C315.438 366.238 315.569 366.568 315.672 366.903C315.685 366.943 315.697 366.983 315.71 367.023C315.745 367.133 315.78 367.242 315.808 367.356C315.92 367.842 315.991 368.338 315.995 368.833C315.995 368.851 316 368.865 316 368.883V368.902C316 368.911 316 368.924 315.991 368.934V523.72C315.991 526.021 314.815 528.167 312.861 529.442L209.31 597H341C368.614 597 391 574.614 391 547V50C391 22.3858 368.614 0 341 0H50ZM183.978 597L301.945 520.038V381.73L253.257 413.494L251.471 491.524C251.415 493.789 250.23 495.88 248.3 497.123L194.092 531.927C192.926 532.678 191.581 533.054 190.237 533.054C189.093 533.054 187.946 532.779 186.896 532.229C184.628 531.028 183.209 528.703 183.209 526.177V459.196L105.487 509.905V597H183.978ZM91.4316 597V509.91L0 450.355V478.138C0.679003 478.328 1.33998 478.623 1.95934 479.026L82.4783 531.473C85.7063 533.577 86.5825 537.85 84.432 541.009C83.078 543.004 80.8478 544.076 78.5755 544.076C77.2403 544.076 75.8863 543.705 74.6916 542.926L0 494.278V547C0 574.614 22.3858 597 50 597H91.4316ZM0 433.833L98.4593 497.962L177.84 446.171L22.4334 341.887L0 356.523V433.833ZM296.294 368.888L138.545 266.136L91.0005 297.157L246.402 401.441L296.294 368.888ZM233.799 409.661L78.3975 305.378L35.0318 333.667L190.438 437.95L233.799 409.661ZM238.986 422.806L197.264 450.027V513.44L237.5 487.609L238.986 422.806ZM36.3671 537.314L82.4783 567.349C85.7063 569.454 86.5825 573.722 84.432 576.886C83.078 578.88 80.8478 579.953 78.5755 579.953C77.2356 579.953 75.8816 579.582 74.6869 578.802L28.5756 548.767C25.3476 546.662 24.4715 542.389 26.6219 539.23C28.7677 536.067 33.1343 535.209 36.3671 537.314Z" fill="#706E76"/>
</svg>
