<svg width="391" height="597" viewBox="0 0 391 597" fill="none" xmlns="http://www.w3.org/2000/svg">
<path fill-rule="evenodd" clip-rule="evenodd" d="M50 0C22.3858 0 0 22.3858 0 50V547C0 574.614 22.3858 597 50 597H121.488V528.233C117.597 520.009 112.583 514.97 108.205 514.97C103.34 514.97 97.8039 521.054 93.7592 530.859C93.1441 532.354 92.0675 533.597 90.7141 534.433C83.7115 543.386 76.2168 545.364 70.9725 545.364C51.7281 545.364 37.2102 518.899 37.2102 483.811C37.2102 448.707 51.7281 422.233 70.9725 422.233C79.4208 422.233 87.3564 427.434 93.3184 436.879C93.8156 437.665 94.1488 438.517 94.3282 439.384C98.2294 447.592 103.243 452.626 107.611 452.626C112.276 452.626 117.525 447.09 121.488 438.081V327.391C121.488 323.193 124.928 319.786 129.177 319.786H241.906C250.201 315.933 255.291 310.965 255.291 306.635C255.291 301.383 249.216 293.256 239.399 289.291C238.882 289.083 238.39 288.815 237.928 288.5C227.311 281.225 225.081 273.169 225.081 267.694C225.081 248.662 251.841 234.304 287.331 234.304C322.821 234.304 349.586 248.656 349.586 267.694C349.586 275.714 344.68 283.329 335.775 289.139C335.278 289.464 334.745 289.727 334.191 289.93C323.851 294.503 318.346 302.199 318.346 306.062C318.346 310.666 323.944 315.857 333.053 319.786H391V50C391 22.3858 368.614 0 341 0H50ZM391 334.996V422.563C389.838 422.36 388.661 422.258 387.475 422.258C368.23 422.258 353.718 448.722 353.718 483.816C353.718 518.919 368.23 545.389 387.475 545.389C388.56 545.389 389.744 545.304 391 545.09V547C391 573.719 370.042 595.543 343.669 596.93C347.208 592.607 349.083 587.804 349.083 582.84C349.083 563.803 322.319 549.45 286.824 549.45C251.334 549.45 224.569 563.803 224.569 582.84C224.569 587.838 226.461 592.667 230.03 597H136.877V526.6C136.877 525.561 136.662 524.527 136.241 523.568C129.505 508.217 119.55 499.76 108.216 499.76C97.3528 499.76 87.4794 507.892 80.8049 522.205C80.4306 522.565 80.0923 522.97 79.795 523.411C76.914 527.7 73.7048 530.154 70.9776 530.154C63.4829 530.154 52.5944 512.1 52.5944 483.811C52.5944 455.506 63.4829 437.442 70.9776 437.442C73.6177 437.442 76.6525 439.688 79.4361 443.668L79.4705 443.753C79.5105 443.853 79.5512 443.955 79.5951 444.053C86.3465 459.389 96.3019 467.836 107.616 467.836C119.227 467.836 129.685 458.593 136.303 442.476C136.677 441.569 136.867 440.595 136.867 439.617V334.996H243.557C244.613 334.996 245.659 334.783 246.628 334.362C262.13 327.695 270.665 317.845 270.665 306.635C270.665 294.427 260.597 281.763 246.074 275.567C243.731 273.869 240.456 270.913 240.456 267.689C240.456 260.277 258.716 249.508 287.331 249.508C315.946 249.508 334.207 260.287 334.207 267.694C334.207 270.274 331.91 273.301 327.881 276.064C313.183 282.574 302.972 294.843 302.972 306.062C302.972 317.535 312.317 327.878 328.609 334.438C329.531 334.808 330.516 334.996 331.505 334.996H391ZM256.839 597H316.855C319.851 594.917 323.325 593.01 327.25 591.307C331.361 588.513 333.699 585.456 333.699 582.84C333.699 575.428 315.439 564.659 286.818 564.659C258.203 564.659 239.943 575.428 239.943 582.84C239.943 585.593 242.511 588.817 246.997 591.692C247.014 591.702 247.031 591.713 247.048 591.724C247.096 591.754 247.141 591.785 247.186 591.819C250.776 593.366 254.003 595.104 256.839 597ZM391 529.005V438.639C389.784 437.868 388.59 437.462 387.47 437.462C379.98 437.462 369.092 455.521 369.092 483.811C369.092 512.116 379.975 530.174 387.47 530.174C388.7 530.174 389.894 529.712 391 529.005Z" fill="#2B4B9D"/>
</svg>
