<svg width="391" height="597" viewBox="0 0 391 597" fill="none" xmlns="http://www.w3.org/2000/svg">
<path fill-rule="evenodd" clip-rule="evenodd" d="M0 50C0 22.3858 22.3857 0 50 0H341C368.614 0 391 22.3858 391 50V273.533L190.873 213.847C187.518 212.846 183.978 214.797 182.961 218.207L82.8717 553.829C81.856 557.235 83.7477 560.809 87.1034 561.81L205.095 597H50C22.3857 597 0 574.614 0 547V50ZM193.265 227.999L391 286.971V313.092L217.613 261.408C214.257 260.407 210.717 262.357 209.7 265.766L184.6 349.901C183.583 353.31 185.475 356.884 188.832 357.884L391 418.149V532.136L375.884 582.82C366.876 591.595 354.569 597 341 597H250.168L96.8566 551.276L193.265 227.999ZM391 326.532V401.391L390.09 404.442L198.586 347.357L220.004 275.56L391 326.532ZM223.273 400.904L182.04 388.607C178.684 387.606 175.143 389.56 174.127 392.966L161.63 434.869C160.614 438.274 162.506 441.849 165.862 442.849L207.095 455.146C210.451 456.147 213.991 454.193 215.007 450.787L227.504 408.885C228.52 405.479 226.624 401.903 223.273 400.904ZM204.703 440.995L175.614 432.32L184.431 402.758L213.52 411.433L204.703 440.995ZM157.851 469.82L199.084 482.116C202.436 483.116 204.333 486.687 203.316 490.097L190.82 531.995C189.804 535.401 186.264 537.355 182.908 536.354L141.675 524.058C138.319 523.057 136.427 519.483 137.443 516.077L149.939 474.179C150.955 470.773 154.496 468.819 157.851 469.82ZM151.427 513.529L180.516 522.204L189.333 492.641L160.244 483.966L151.427 513.529ZM381.427 448.008L340.198 435.713C336.842 434.712 333.301 436.666 332.286 440.072L319.788 481.974C318.772 485.38 320.664 488.954 324.02 489.955L365.253 502.252C368.609 503.252 372.15 501.298 373.165 497.892L385.663 455.99C386.674 452.583 384.783 449.009 381.427 448.008ZM362.857 488.1L333.772 479.426L342.589 449.864L371.678 458.539L362.857 488.1ZM316.009 516.925L357.238 529.221C360.594 530.221 362.487 533.791 361.474 537.203L348.978 579.101C347.962 582.507 344.422 584.461 341.066 583.46L299.833 571.163C296.477 570.162 294.585 566.588 295.601 563.182L308.097 521.284C309.113 517.878 312.653 515.924 316.009 516.925ZM309.585 560.634L338.67 569.308L347.491 539.747L318.402 531.072L309.585 560.634ZM304.115 423.481L262.894 411.188C259.538 410.187 255.997 412.141 254.981 415.547L242.484 457.449C241.468 460.855 243.36 464.43 246.716 465.43L287.937 477.723C291.293 478.724 294.833 476.77 295.849 473.364L308.346 431.462C309.362 428.056 307.466 424.481 304.115 423.481ZM285.545 463.573L256.468 454.901L265.285 425.339L294.362 434.01L285.545 463.573ZM238.707 492.396L279.928 504.689C283.279 505.689 285.175 509.264 284.159 512.67L271.661 554.576C270.645 557.982 267.104 559.936 263.749 558.936L222.528 546.643C219.172 545.642 217.28 542.068 218.296 538.662L230.794 496.755C231.81 493.35 235.351 491.395 238.707 492.396ZM232.281 536.109L261.358 544.781L270.176 515.214L241.099 506.543L232.281 536.109Z" fill="#2B4B9D"/>
</svg>
